<svg width="128" height="128" viewBox="0 0 128 128" fill="none" xmlns="http://www.w3.org/2000/svg">
<rect width="128" height="128" rx="36" fill="#DEBC32"/>
<g opacity="0.912">
<mask id="path-2-outside-1_0_1" maskUnits="userSpaceOnUse" x="35" y="9" width="64" height="97" fill="black">
<rect fill="white" x="35" y="9" width="64" height="97"/>
<path fill-rule="evenodd" clip-rule="evenodd" d="M57.7691 14.4223C57.7022 14.1982 57.5869 14.1597 57.4231 14.307C56.7644 13.8057 56.0331 13.6519 55.2314 13.8456C55.2245 13.783 55.1864 13.7445 55.1161 13.7302C54.7885 14.2328 54.4609 14.7326 54.1356 15.2298C54.0733 15.7819 53.8622 16.2625 53.5012 16.6717C53.673 16.9049 53.635 17.0971 53.3858 17.2484C53.4966 17.5537 53.4389 17.8421 53.2128 18.1135C53.079 17.9906 52.9833 18.029 52.9244 18.2289C52.771 18.3442 52.771 18.4596 52.9244 18.5749C52.7364 18.9742 52.6211 19.3971 52.5784 19.8438C52.2208 19.8337 52.1827 19.8914 52.463 20.0168C52.3731 20.3329 52.3154 20.6598 52.29 20.9973C52.2612 20.8676 52.2035 20.7523 52.117 20.6512C51.8944 21.1839 51.6833 21.7221 51.4826 22.2661C49.3682 29.2253 47.022 36.1078 44.4462 42.9137C41.5091 50.8948 39.625 59.1231 38.7941 67.5985C38.6736 69.6149 38.6159 71.6336 38.6211 73.6544C38.6069 75.332 38.6646 77.0046 38.7941 78.6721C39.7918 82.9346 41.0221 87.1257 42.4853 91.2452C43.1648 93.0533 43.9338 94.8219 44.7923 96.5513C44.8493 96.7397 44.8684 96.932 44.85 97.128C44.3482 97.0969 43.8675 97.1738 43.4081 97.3587C40.9271 91.7787 38.9662 86.0112 37.5253 80.0563C37.1371 77.883 36.9641 75.6913 37.0062 73.4813C37.1702 64.3223 38.689 55.402 41.5625 46.7202C42.8552 42.9725 44.2009 39.2429 45.5997 35.5313C47.3427 30.0475 49.149 24.5875 51.0212 19.1517C51.719 16.9794 52.6799 14.9416 53.9049 13.0381C54.2752 12.5322 54.7562 12.1862 55.3468 12C59.8685 12.716 62.0209 15.369 61.8063 19.9591C61.7752 20.8835 61.7175 21.8063 61.6333 22.7275C61.1615 24.0548 60.7578 25.4005 60.4221 26.7647C61.4534 27.5071 62.3946 28.353 63.2482 29.3024C63.825 30.1107 64.2483 30.9951 64.5171 31.9555C64.6589 33.5521 64.5436 35.1286 64.171 36.6848C63.818 38.3953 63.3959 40.0872 62.9022 41.7602C62.2216 43.5833 61.6056 45.4289 61.0566 47.297C60.8835 48.0582 60.8455 48.8272 60.9412 49.604C65.5483 47.6844 70.0665 45.589 74.4948 43.3174C77.1121 41.9293 79.7259 40.5451 82.3386 39.1648C83.8681 38.2878 85.3677 37.365 86.8372 36.3964C88.4809 35.4214 90.2504 34.7677 92.1433 34.4355C94.2253 34.1134 95.7445 34.8632 96.6996 36.6848C97.191 39 96.8449 41.1916 95.6615 43.2597C93.8251 45.7112 91.6138 47.7683 89.0289 49.4309C87.2536 50.4723 85.4461 51.4528 83.6074 52.3724C85.2581 53.6728 86.257 55.3646 86.6065 57.4477C87.0425 57.4993 87.4463 57.6147 87.8177 57.7938C87.865 57.7411 87.9226 57.7025 87.9907 57.6784C89.8201 58.8757 91.0694 60.529 91.7396 62.6385C93.1341 69.5358 91.3082 75.4379 86.2605 80.3446C84.9097 81.5595 83.3721 82.463 81.6465 83.0554C78.8804 90.2248 74.2664 95.8962 67.8045 100.069C66.2473 101.021 64.7085 102.002 63.1905 103.011C62.8214 102.861 62.4558 102.861 62.0947 103.011C62.0313 102.411 62.2043 101.892 62.6138 101.454C66.8321 99.1579 70.6571 96.3319 74.0911 92.9754C75.7521 91.1552 77.0982 89.1173 78.1283 86.8619C79.9635 83.0484 81.3858 79.0881 82.3962 74.9809C83.1172 72.4195 84.3284 70.1317 86.0298 68.1176C86.1451 68.0406 86.2605 68.0406 86.3758 68.1176C86.6665 68.4271 86.9733 68.7154 87.2986 68.9827C85.5695 71.0443 84.3583 73.3897 83.6651 76.019C83.2106 77.5923 82.7688 79.1688 82.3386 80.7484C82.3766 80.8637 82.4159 80.9791 82.4539 81.0944C84.5279 80.0093 86.2385 78.5098 87.587 76.5958C90.3081 72.7348 91.2701 68.4669 90.4707 63.792C90.0451 62.1136 89.218 60.6718 87.9907 59.4664C87.6804 59.1861 87.3148 59.0514 86.8949 59.0626C85.7679 59.2338 84.6721 59.5222 83.6074 59.9278C79.3106 62.1038 74.9274 64.1033 70.4576 65.9259C69.2833 66.3363 68.1298 66.2979 66.9971 65.8106C66.7502 65.6466 66.6164 65.4351 66.5934 65.1762C66.8437 64.9262 67.0928 64.6764 67.3431 64.4264C67.7918 64.5299 68.2532 64.6261 68.7273 64.7148C69.3594 64.6461 69.9743 64.5115 70.5729 64.311C74.4556 62.6963 78.2621 60.9276 81.9925 59.005C83.0445 58.5561 84.1207 58.1717 85.2223 57.8515C84.2995 53.9844 81.838 52.1579 77.8399 52.3724C75.466 52.4796 73.1591 52.9218 70.919 53.6989C66.6937 55.3502 62.6565 57.3688 58.8073 59.7547C58.5235 59.3609 58.2547 58.9572 57.9998 58.5436C62.0463 55.9105 66.3523 53.7572 70.919 52.084C73.5374 51.1862 76.2285 50.7632 78.9934 50.8151C79.937 50.9462 80.8598 51.1577 81.7618 51.4496C84.7136 50.2432 87.482 48.7245 90.067 46.8933C91.6634 45.6423 93.0672 44.2004 94.2773 42.5676C95.267 40.9569 95.613 39.2267 95.3154 37.3769C95.2254 37.1709 95.0905 36.9979 94.9117 36.8578C94.9497 36.8194 94.989 36.7809 95.027 36.7425C94.741 36.426 94.3949 36.1953 93.9889 36.0504C91.9991 35.9717 90.1154 36.3947 88.3368 37.3192C87.775 37.8505 87.121 38.235 86.3758 38.4727C78.6474 43.0294 70.649 47.105 62.3831 50.6998C60.1811 51.6158 57.9502 52.4616 55.6928 53.2375C54.214 53.692 52.7145 54.0764 51.1942 54.391C50.3487 54.4679 49.502 54.4679 48.6565 54.391C48.3439 54.2739 48.0751 54.1009 47.849 53.8719C48.1178 53.4874 48.3877 53.1029 48.6565 52.7184C49.0475 52.9513 49.4709 53.0667 49.9253 53.0645C50.4686 53.0123 51.0073 52.9354 51.5402 52.8338C51.9105 50.0279 52.4676 47.2595 53.2128 44.5286C54.6731 39.5694 56.25 34.6477 57.9421 29.7638C58.5869 27.3677 59.279 24.9839 60.0184 22.6122C60.3945 20.8041 60.3945 18.997 60.0184 17.1907C59.6747 15.9195 58.9249 14.9967 57.7691 14.4223ZM59.8454 28.3796C62.3912 30.0334 63.4109 32.3788 62.9022 35.416C62.6196 36.7288 62.3116 38.036 61.9794 39.3379C61.03 42.0833 60.1453 44.8517 59.3263 47.643C59.2421 48.5314 59.2617 49.4158 59.384 50.2961C57.3712 51.1386 55.3145 51.8692 53.2128 52.4877C53.5808 49.3204 54.2348 46.206 55.1737 43.1444C56.4657 39.0136 57.8118 34.8994 59.211 30.802C59.4336 29.9982 59.6458 29.1908 59.8454 28.3796ZM68.612 35.6467C68.8727 35.7318 68.8923 35.8471 68.6696 35.9927C68.4701 35.8944 68.4505 35.7791 68.612 35.6467ZM68.2659 37.3769C68.4793 37.3448 68.6327 37.4218 68.7273 37.6076C68.5866 37.7361 68.432 37.7554 68.2659 37.6653C68.139 37.5765 68.139 37.4804 68.2659 37.3769ZM68.0352 38.5304C68.2959 38.6155 68.3155 38.7309 68.0929 38.8765C67.8933 38.7782 67.8737 38.6628 68.0352 38.5304Z"/>
</mask>
<path fill-rule="evenodd" clip-rule="evenodd" d="M57.7691 14.4223C57.7022 14.1982 57.5869 14.1597 57.4231 14.307C56.7644 13.8057 56.0331 13.6519 55.2314 13.8456C55.2245 13.783 55.1864 13.7445 55.1161 13.7302C54.7885 14.2328 54.4609 14.7326 54.1356 15.2298C54.0733 15.7819 53.8622 16.2625 53.5012 16.6717C53.673 16.9049 53.635 17.0971 53.3858 17.2484C53.4966 17.5537 53.4389 17.8421 53.2128 18.1135C53.079 17.9906 52.9833 18.029 52.9244 18.2289C52.771 18.3442 52.771 18.4596 52.9244 18.5749C52.7364 18.9742 52.6211 19.3971 52.5784 19.8438C52.2208 19.8337 52.1827 19.8914 52.463 20.0168C52.3731 20.3329 52.3154 20.6598 52.29 20.9973C52.2612 20.8676 52.2035 20.7523 52.117 20.6512C51.8944 21.1839 51.6833 21.7221 51.4826 22.2661C49.3682 29.2253 47.022 36.1078 44.4462 42.9137C41.5091 50.8948 39.625 59.1231 38.7941 67.5985C38.6736 69.6149 38.6159 71.6336 38.6211 73.6544C38.6069 75.332 38.6646 77.0046 38.7941 78.6721C39.7918 82.9346 41.0221 87.1257 42.4853 91.2452C43.1648 93.0533 43.9338 94.8219 44.7923 96.5513C44.8493 96.7397 44.8684 96.932 44.85 97.128C44.3482 97.0969 43.8675 97.1738 43.4081 97.3587C40.9271 91.7787 38.9662 86.0112 37.5253 80.0563C37.1371 77.883 36.9641 75.6913 37.0062 73.4813C37.1702 64.3223 38.689 55.402 41.5625 46.7202C42.8552 42.9725 44.2009 39.2429 45.5997 35.5313C47.3427 30.0475 49.149 24.5875 51.0212 19.1517C51.719 16.9794 52.6799 14.9416 53.9049 13.0381C54.2752 12.5322 54.7562 12.1862 55.3468 12C59.8685 12.716 62.0209 15.369 61.8063 19.9591C61.7752 20.8835 61.7175 21.8063 61.6333 22.7275C61.1615 24.0548 60.7578 25.4005 60.4221 26.7647C61.4534 27.5071 62.3946 28.353 63.2482 29.3024C63.825 30.1107 64.2483 30.9951 64.5171 31.9555C64.6589 33.5521 64.5436 35.1286 64.171 36.6848C63.818 38.3953 63.3959 40.0872 62.9022 41.7602C62.2216 43.5833 61.6056 45.4289 61.0566 47.297C60.8835 48.0582 60.8455 48.8272 60.9412 49.604C65.5483 47.6844 70.0665 45.589 74.4948 43.3174C77.1121 41.9293 79.7259 40.5451 82.3386 39.1648C83.8681 38.2878 85.3677 37.365 86.8372 36.3964C88.4809 35.4214 90.2504 34.7677 92.1433 34.4355C94.2253 34.1134 95.7445 34.8632 96.6996 36.6848C97.191 39 96.8449 41.1916 95.6615 43.2597C93.8251 45.7112 91.6138 47.7683 89.0289 49.4309C87.2536 50.4723 85.4461 51.4528 83.6074 52.3724C85.2581 53.6728 86.257 55.3646 86.6065 57.4477C87.0425 57.4993 87.4463 57.6147 87.8177 57.7938C87.865 57.7411 87.9226 57.7025 87.9907 57.6784C89.8201 58.8757 91.0694 60.529 91.7396 62.6385C93.1341 69.5358 91.3082 75.4379 86.2605 80.3446C84.9097 81.5595 83.3721 82.463 81.6465 83.0554C78.8804 90.2248 74.2664 95.8962 67.8045 100.069C66.2473 101.021 64.7085 102.002 63.1905 103.011C62.8214 102.861 62.4558 102.861 62.0947 103.011C62.0313 102.411 62.2043 101.892 62.6138 101.454C66.8321 99.1579 70.6571 96.3319 74.0911 92.9754C75.7521 91.1552 77.0982 89.1173 78.1283 86.8619C79.9635 83.0484 81.3858 79.0881 82.3962 74.9809C83.1172 72.4195 84.3284 70.1317 86.0298 68.1176C86.1451 68.0406 86.2605 68.0406 86.3758 68.1176C86.6665 68.4271 86.9733 68.7154 87.2986 68.9827C85.5695 71.0443 84.3583 73.3897 83.6651 76.019C83.2106 77.5923 82.7688 79.1688 82.3386 80.7484C82.3766 80.8637 82.4159 80.9791 82.4539 81.0944C84.5279 80.0093 86.2385 78.5098 87.587 76.5958C90.3081 72.7348 91.2701 68.4669 90.4707 63.792C90.0451 62.1136 89.218 60.6718 87.9907 59.4664C87.6804 59.1861 87.3148 59.0514 86.8949 59.0626C85.7679 59.2338 84.6721 59.5222 83.6074 59.9278C79.3106 62.1038 74.9274 64.1033 70.4576 65.9259C69.2833 66.3363 68.1298 66.2979 66.9971 65.8106C66.7502 65.6466 66.6164 65.4351 66.5934 65.1762C66.8437 64.9262 67.0928 64.6764 67.3431 64.4264C67.7918 64.5299 68.2532 64.6261 68.7273 64.7148C69.3594 64.6461 69.9743 64.5115 70.5729 64.311C74.4556 62.6963 78.2621 60.9276 81.9925 59.005C83.0445 58.5561 84.1207 58.1717 85.2223 57.8515C84.2995 53.9844 81.838 52.1579 77.8399 52.3724C75.466 52.4796 73.1591 52.9218 70.919 53.6989C66.6937 55.3502 62.6565 57.3688 58.8073 59.7547C58.5235 59.3609 58.2547 58.9572 57.9998 58.5436C62.0463 55.9105 66.3523 53.7572 70.919 52.084C73.5374 51.1862 76.2285 50.7632 78.9934 50.8151C79.937 50.9462 80.8598 51.1577 81.7618 51.4496C84.7136 50.2432 87.482 48.7245 90.067 46.8933C91.6634 45.6423 93.0672 44.2004 94.2773 42.5676C95.267 40.9569 95.613 39.2267 95.3154 37.3769C95.2254 37.1709 95.0905 36.9979 94.9117 36.8578C94.9497 36.8194 94.989 36.7809 95.027 36.7425C94.741 36.426 94.3949 36.1953 93.9889 36.0504C91.9991 35.9717 90.1154 36.3947 88.3368 37.3192C87.775 37.8505 87.121 38.235 86.3758 38.4727C78.6474 43.0294 70.649 47.105 62.3831 50.6998C60.1811 51.6158 57.9502 52.4616 55.6928 53.2375C54.214 53.692 52.7145 54.0764 51.1942 54.391C50.3487 54.4679 49.502 54.4679 48.6565 54.391C48.3439 54.2739 48.0751 54.1009 47.849 53.8719C48.1178 53.4874 48.3877 53.1029 48.6565 52.7184C49.0475 52.9513 49.4709 53.0667 49.9253 53.0645C50.4686 53.0123 51.0073 52.9354 51.5402 52.8338C51.9105 50.0279 52.4676 47.2595 53.2128 44.5286C54.6731 39.5694 56.25 34.6477 57.9421 29.7638C58.5869 27.3677 59.279 24.9839 60.0184 22.6122C60.3945 20.8041 60.3945 18.997 60.0184 17.1907C59.6747 15.9195 58.9249 14.9967 57.7691 14.4223ZM59.8454 28.3796C62.3912 30.0334 63.4109 32.3788 62.9022 35.416C62.6196 36.7288 62.3116 38.036 61.9794 39.3379C61.03 42.0833 60.1453 44.8517 59.3263 47.643C59.2421 48.5314 59.2617 49.4158 59.384 50.2961C57.3712 51.1386 55.3145 51.8692 53.2128 52.4877C53.5808 49.3204 54.2348 46.206 55.1737 43.1444C56.4657 39.0136 57.8118 34.8994 59.211 30.802C59.4336 29.9982 59.6458 29.1908 59.8454 28.3796ZM68.612 35.6467C68.8727 35.7318 68.8923 35.8471 68.6696 35.9927C68.4701 35.8944 68.4505 35.7791 68.612 35.6467ZM68.2659 37.3769C68.4793 37.3448 68.6327 37.4218 68.7273 37.6076C68.5866 37.7361 68.432 37.7554 68.2659 37.6653C68.139 37.5765 68.139 37.4804 68.2659 37.3769ZM68.0352 38.5304C68.2959 38.6155 68.3155 38.7309 68.0929 38.8765C67.8933 38.7782 67.8737 38.6628 68.0352 38.5304Z" fill="black"/>
<path fill-rule="evenodd" clip-rule="evenodd" d="M57.7691 14.4223C57.7022 14.1982 57.5869 14.1597 57.4231 14.307C56.7644 13.8057 56.0331 13.6519 55.2314 13.8456C55.2245 13.783 55.1864 13.7445 55.1161 13.7302C54.7885 14.2328 54.4609 14.7326 54.1356 15.2298C54.0733 15.7819 53.8622 16.2625 53.5012 16.6717C53.673 16.9049 53.635 17.0971 53.3858 17.2484C53.4966 17.5537 53.4389 17.8421 53.2128 18.1135C53.079 17.9906 52.9833 18.029 52.9244 18.2289C52.771 18.3442 52.771 18.4596 52.9244 18.5749C52.7364 18.9742 52.6211 19.3971 52.5784 19.8438C52.2208 19.8337 52.1827 19.8914 52.463 20.0168C52.3731 20.3329 52.3154 20.6598 52.29 20.9973C52.2612 20.8676 52.2035 20.7523 52.117 20.6512C51.8944 21.1839 51.6833 21.7221 51.4826 22.2661C49.3682 29.2253 47.022 36.1078 44.4462 42.9137C41.5091 50.8948 39.625 59.1231 38.7941 67.5985C38.6736 69.6149 38.6159 71.6336 38.6211 73.6544C38.6069 75.332 38.6646 77.0046 38.7941 78.6721C39.7918 82.9346 41.0221 87.1257 42.4853 91.2452C43.1648 93.0533 43.9338 94.8219 44.7923 96.5513C44.8493 96.7397 44.8684 96.932 44.85 97.128C44.3482 97.0969 43.8675 97.1738 43.4081 97.3587C40.9271 91.7787 38.9662 86.0112 37.5253 80.0563C37.1371 77.883 36.9641 75.6913 37.0062 73.4813C37.1702 64.3223 38.689 55.402 41.5625 46.7202C42.8552 42.9725 44.2009 39.2429 45.5997 35.5313C47.3427 30.0475 49.149 24.5875 51.0212 19.1517C51.719 16.9794 52.6799 14.9416 53.9049 13.0381C54.2752 12.5322 54.7562 12.1862 55.3468 12C59.8685 12.716 62.0209 15.369 61.8063 19.9591C61.7752 20.8835 61.7175 21.8063 61.6333 22.7275C61.1615 24.0548 60.7578 25.4005 60.4221 26.7647C61.4534 27.5071 62.3946 28.353 63.2482 29.3024C63.825 30.1107 64.2483 30.9951 64.5171 31.9555C64.6589 33.5521 64.5436 35.1286 64.171 36.6848C63.818 38.3953 63.3959 40.0872 62.9022 41.7602C62.2216 43.5833 61.6056 45.4289 61.0566 47.297C60.8835 48.0582 60.8455 48.8272 60.9412 49.604C65.5483 47.6844 70.0665 45.589 74.4948 43.3174C77.1121 41.9293 79.7259 40.5451 82.3386 39.1648C83.8681 38.2878 85.3677 37.365 86.8372 36.3964C88.4809 35.4214 90.2504 34.7677 92.1433 34.4355C94.2253 34.1134 95.7445 34.8632 96.6996 36.6848C97.191 39 96.8449 41.1916 95.6615 43.2597C93.8251 45.7112 91.6138 47.7683 89.0289 49.4309C87.2536 50.4723 85.4461 51.4528 83.6074 52.3724C85.2581 53.6728 86.257 55.3646 86.6065 57.4477C87.0425 57.4993 87.4463 57.6147 87.8177 57.7938C87.865 57.7411 87.9226 57.7025 87.9907 57.6784C89.8201 58.8757 91.0694 60.529 91.7396 62.6385C93.1341 69.5358 91.3082 75.4379 86.2605 80.3446C84.9097 81.5595 83.3721 82.463 81.6465 83.0554C78.8804 90.2248 74.2664 95.8962 67.8045 100.069C66.2473 101.021 64.7085 102.002 63.1905 103.011C62.8214 102.861 62.4558 102.861 62.0947 103.011C62.0313 102.411 62.2043 101.892 62.6138 101.454C66.8321 99.1579 70.6571 96.3319 74.0911 92.9754C75.7521 91.1552 77.0982 89.1173 78.1283 86.8619C79.9635 83.0484 81.3858 79.0881 82.3962 74.9809C83.1172 72.4195 84.3284 70.1317 86.0298 68.1176C86.1451 68.0406 86.2605 68.0406 86.3758 68.1176C86.6665 68.4271 86.9733 68.7154 87.2986 68.9827C85.5695 71.0443 84.3583 73.3897 83.6651 76.019C83.2106 77.5923 82.7688 79.1688 82.3386 80.7484C82.3766 80.8637 82.4159 80.9791 82.4539 81.0944C84.5279 80.0093 86.2385 78.5098 87.587 76.5958C90.3081 72.7348 91.2701 68.4669 90.4707 63.792C90.0451 62.1136 89.218 60.6718 87.9907 59.4664C87.6804 59.1861 87.3148 59.0514 86.8949 59.0626C85.7679 59.2338 84.6721 59.5222 83.6074 59.9278C79.3106 62.1038 74.9274 64.1033 70.4576 65.9259C69.2833 66.3363 68.1298 66.2979 66.9971 65.8106C66.7502 65.6466 66.6164 65.4351 66.5934 65.1762C66.8437 64.9262 67.0928 64.6764 67.3431 64.4264C67.7918 64.5299 68.2532 64.6261 68.7273 64.7148C69.3594 64.6461 69.9743 64.5115 70.5729 64.311C74.4556 62.6963 78.2621 60.9276 81.9925 59.005C83.0445 58.5561 84.1207 58.1717 85.2223 57.8515C84.2995 53.9844 81.838 52.1579 77.8399 52.3724C75.466 52.4796 73.1591 52.9218 70.919 53.6989C66.6937 55.3502 62.6565 57.3688 58.8073 59.7547C58.5235 59.3609 58.2547 58.9572 57.9998 58.5436C62.0463 55.9105 66.3523 53.7572 70.919 52.084C73.5374 51.1862 76.2285 50.7632 78.9934 50.8151C79.937 50.9462 80.8598 51.1577 81.7618 51.4496C84.7136 50.2432 87.482 48.7245 90.067 46.8933C91.6634 45.6423 93.0672 44.2004 94.2773 42.5676C95.267 40.9569 95.613 39.2267 95.3154 37.3769C95.2254 37.1709 95.0905 36.9979 94.9117 36.8578C94.9497 36.8194 94.989 36.7809 95.027 36.7425C94.741 36.426 94.3949 36.1953 93.9889 36.0504C91.9991 35.9717 90.1154 36.3947 88.3368 37.3192C87.775 37.8505 87.121 38.235 86.3758 38.4727C78.6474 43.0294 70.649 47.105 62.3831 50.6998C60.1811 51.6158 57.9502 52.4616 55.6928 53.2375C54.214 53.692 52.7145 54.0764 51.1942 54.391C50.3487 54.4679 49.502 54.4679 48.6565 54.391C48.3439 54.2739 48.0751 54.1009 47.849 53.8719C48.1178 53.4874 48.3877 53.1029 48.6565 52.7184C49.0475 52.9513 49.4709 53.0667 49.9253 53.0645C50.4686 53.0123 51.0073 52.9354 51.5402 52.8338C51.9105 50.0279 52.4676 47.2595 53.2128 44.5286C54.6731 39.5694 56.25 34.6477 57.9421 29.7638C58.5869 27.3677 59.279 24.9839 60.0184 22.6122C60.3945 20.8041 60.3945 18.997 60.0184 17.1907C59.6747 15.9195 58.9249 14.9967 57.7691 14.4223ZM59.8454 28.3796C62.3912 30.0334 63.4109 32.3788 62.9022 35.416C62.6196 36.7288 62.3116 38.036 61.9794 39.3379C61.03 42.0833 60.1453 44.8517 59.3263 47.643C59.2421 48.5314 59.2617 49.4158 59.384 50.2961C57.3712 51.1386 55.3145 51.8692 53.2128 52.4877C53.5808 49.3204 54.2348 46.206 55.1737 43.1444C56.4657 39.0136 57.8118 34.8994 59.211 30.802C59.4336 29.9982 59.6458 29.1908 59.8454 28.3796ZM68.612 35.6467C68.8727 35.7318 68.8923 35.8471 68.6696 35.9927C68.4701 35.8944 68.4505 35.7791 68.612 35.6467ZM68.2659 37.3769C68.4793 37.3448 68.6327 37.4218 68.7273 37.6076C68.5866 37.7361 68.432 37.7554 68.2659 37.6653C68.139 37.5765 68.139 37.4804 68.2659 37.3769ZM68.0352 38.5304C68.2959 38.6155 68.3155 38.7309 68.0929 38.8765C67.8933 38.7782 67.8737 38.6628 68.0352 38.5304Z" stroke="black" stroke-width="4" mask="url(#path-2-outside-1_0_1)"/>
</g>
<rect x="67.0963" y="32.0342" width="6.82279" height="10" rx="3.41139" transform="rotate(11.0834 67.0963 32.0342)" fill="#DEBC32"/>
</svg>
